<svg xmlns="http://www.w3.org/2000/svg" xmlns:xlink="http://www.w3.org/1999/xlink" height="597" style="background-color: #f0f0f0" version="1.1" viewBox="0 0 801 597" width="801"><rect fill="white" height="75" stroke="black" stroke-width="1.0" width="150" x="100" y="230"/><text fill="black" font-family="Times" font-size="25" font-weight="normal" text-anchor="middle"><tspan x="175" y="277">CUSTOMER</tspan></text><rect fill="white" height="70" stroke="black" stroke-width="1.0" width="140" x="660" y="240"/><text fill="black" font-family="Times" font-size="25" font-weight="normal" text-anchor="middle"><tspan x="730" y="285">PRODUCT</tspan></text><path d="M 430 490 L 520 543 L 430 596 L 340 543 Z" fill="white" stroke="black" stroke-width="1.0"/><text fill="black" font-family="Times" font-size="25" font-weight="normal" text-anchor="middle"><tspan x="430" y="553">Buys</tspan></text><g><path d="M 520.0 543.0 L 702.5746268656717 310.0" fill="none" stroke="black" stroke-width="1.0"/></g><rect fill="none" height="31" stroke="none" stroke-width="1.0" width="23" x="631" y="426"/><text fill="black" font-family="Times" font-size="20" font-weight="normal" text-anchor="start"><tspan x="634" y="449">M</tspan></text><ellipse cx="300" cy="170" fill="white" rx="80" ry="30" stroke="black" stroke-width="1.0"/><text fill="black" font-family="Times" font-size="25" font-weight="normal" text-anchor="middle"><tspan x="300" y="180">Name</tspan></text><g><path d="M 265.336445210571 197.03757273575457 L 223.0769230769231 230.0" fill="none" stroke="black" stroke-width="1.0"/></g><ellipse cx="90" cy="360" fill="white" rx="80" ry="30" stroke="black" stroke-width="1.0"/><text fill="black" font-family="Times" font-size="25" font-weight="normal" text-anchor="middle"><tspan x="90" y="370">email</tspan></text><g><path d="M 116.06350444640464 331.6367745730304 L 140.54054054054052 305.0" fill="none" stroke="black" stroke-width="1.0"/></g><ellipse cx="470" cy="70" fill="white" rx="80" ry="30" stroke="black" stroke-width="1.0"/><text fill="black" font-family="Times" font-size="25" font-weight="normal" text-anchor="middle"><tspan x="469" y="80">FirstName</tspan></text><g><path d="M 426.9954128990764 95.29681594171984 L 343.0045871009236 144.70318405828039" fill="none" stroke="black" stroke-width="1.0"/></g><ellipse cx="300" cy="30" fill="white" rx="80" ry="30" stroke="black" stroke-width="1.0"/><text fill="black" font-family="Times" font-size="25" font-weight="normal" text-anchor="middle"><tspan x="300" y="40">LastName</tspan></text><g><path d="M 300.0 60.0 L 300.0 140.0" fill="none" stroke="black" stroke-width="1.0"/></g><ellipse cx="560" cy="210" fill="white" rx="80" ry="30" stroke="black" stroke-width="1.0"/><text fill="black" font-family="Times" font-size="25" font-weight="normal" text-anchor="middle"><tspan x="560" y="220">Price</tspan></text><g><path d="M 616.0166933513965 231.4181474578868 L 660.0 248.23529411764707" fill="none" stroke="black" stroke-width="1.0"/></g><g><path d="M 340.0 543.0 L 197.45916515426495 305.0" fill="none" stroke="black" stroke-width="1.0"/></g><rect fill="none" height="31" stroke="none" stroke-width="1.0" width="19" x="288" y="424"/><text fill="black" font-family="Times" font-size="20" font-weight="normal" text-anchor="start"><tspan x="291" y="447">N</tspan></text><ellipse cx="700" cy="30" fill="white" rx="80" ry="30" stroke="black" stroke-width="1.0" text-decoration="underline"/><text fill="black" font-decoration="underline" font-family="Times" font-size="25" font-weight="normal" text-anchor="middle" text-decoration="underline"><tspan x="699" y="40">ProductID</tspan></text><g><path d="M 703.6696027526721 59.96842248015491 L 725.7142857142858 240.0" fill="none" stroke="black" stroke-width="1.0"/></g><ellipse cx="80" cy="90" fill="white" font-weight="bold" rx="80" ry="30" stroke="black" stroke-width="1.0" text-decoration="underline"/><text fill="black" font-decoration="underline" font-family="Times" font-size="25" font-weight="bold" text-anchor="middle" text-decoration="underline"><tspan x="80" y="100">CustomerID</tspan></text><g><path d="M 95.74239922329252 119.41343012773086 L 154.92957746478874 230.0" fill="none" stroke="black" stroke-width="1.0"/></g></svg>