<svg xmlns="http://www.w3.org/2000/svg" xmlns:xlink="http://www.w3.org/1999/xlink" height="1161" style="background-color: #f0f0f0" version="1.1" viewBox="0 0 1661 1161" width="1661"><rect fill="white" height="80" stroke="black" stroke-width="1.0" width="160" x="320" y="390"/><text fill="black" font-family="Times" font-size="25" font-weight="normal" text-anchor="middle"><tspan x="400" y="440">EMPLOYEE</tspan></text><ellipse cx="270" cy="190" fill="white" rx="80" ry="30" stroke="black" stroke-width="1.0"/><text fill="black" font-family="Times" font-size="25" font-weight="normal" text-anchor="middle"><tspan x="270" y="200">Name</tspan></text><g><path d="M 285.9247939432033 219.39961958745243 L 378.33333333333337 390.0" fill="none" stroke="black" stroke-width="1.0"/></g><ellipse cx="740" cy="100" fill="white" rx="80" ry="30" stroke="black" stroke-width="1.0"/><text fill="black" font-family="Times" font-size="25" font-weight="normal" text-anchor="middle"><tspan x="740" y="110">Sex</tspan></text><g><path d="M 711.1680576638255 127.98394403216935 L 441.21212121212125 390.0" fill="none" stroke="black" stroke-width="1.0"/></g><ellipse cx="530" cy="190" fill="white" rx="80" ry="30" stroke="black" stroke-width="1.0"/><text fill="black" font-family="Times" font-size="25" font-weight="normal" text-anchor="middle"><tspan x="529" y="200">Salary</tspan></text><g><path d="M 514.0752060567929 219.39961958745926 L 421.66666666666674 390.0" fill="none" stroke="black" stroke-width="1.0"/></g><ellipse cx="450" cy="120" fill="white" rx="80" ry="30" stroke="black" stroke-width="1.0"/><text fill="black" font-family="Times" font-size="25" font-weight="normal" text-anchor="middle"><tspan x="449" y="130">Address</tspan></text><g><path d="M 445.17011683497003 149.9452756231858 L 406.45161290322585 390.0" fill="none" stroke="black" stroke-width="1.0"/></g><ellipse cx="100" cy="60" fill="white" rx="80" ry="30" stroke="black" stroke-width="1.0"/><text fill="black" font-family="Times" font-size="25" font-weight="normal" text-anchor="middle"><tspan x="99" y="70">FName</tspan></text><g><path d="M 135.2234955835853 86.93561426980045 L 234.77650441641333 163.06438573019852" fill="none" stroke="black" stroke-width="1.0"/></g><ellipse cx="260" cy="30" fill="white" rx="80" ry="30" stroke="black" stroke-width="1.0"/><text fill="black" font-family="Times" font-size="25" font-weight="normal" text-anchor="middle"><tspan x="260" y="40">Minit</tspan></text><g><path d="M 261.874485227939 59.99176364702362 L 268.125514772061 160.00823635297638" fill="none" stroke="black" stroke-width="1.0"/></g><ellipse cx="440" cy="40" fill="white" rx="80" ry="30" stroke="black" stroke-width="1.0"/><text fill="black" font-family="Times" font-size="25" font-weight="normal" text-anchor="middle"><tspan x="440" y="50">LName</tspan></text><g><path d="M 408.70874877240976 67.60992755375617 L 301.2912512275884 162.39007244624543" fill="none" stroke="black" stroke-width="1.0"/></g><ellipse cx="100" cy="220" fill="white" rx="80" ry="30" stroke="black" stroke-width="1.0"/><text fill="black" font-family="Times" font-size="25" font-weight="normal" text-anchor="middle"><tspan x="100" y="230">Bdate</tspan></text><g><path d="M 137.77771300123345 246.44439910086345 L 342.8571428571429 390.0" fill="none" stroke="black" stroke-width="1.0"/></g><ellipse cx="80" cy="320" fill="white" font-weight="bold" rx="80" ry="30" stroke="black" stroke-width="1.0" text-decoration="underline"/><text fill="black" font-decoration="underline" font-family="Times" font-size="25" font-weight="bold" text-anchor="middle" text-decoration="underline"><tspan x="80" y="330">Ssn</tspan></text><g><path d="M 138.9723312160594 340.2717388555204 L 320.0 402.5" fill="none" stroke="black" stroke-width="1.0"/></g><path d="M 980 60 L 1090 124 L 980 189 L 870 124 Z" fill="white" stroke="black" stroke-width="1.0"/><text fill="black" font-family="Times" font-size="25" font-weight="normal" text-anchor="middle"><tspan x="979" y="135">WORKS_FOR</tspan></text><g><path d="M 870.0 125.0 L 461.639344262295 390.0" fill="none" stroke="black" stroke-width="5.0"/></g><rect fill="none" height="31" stroke="none" stroke-width="5.0" width="19" x="685" y="257"/><text fill="black" font-family="Times" font-size="20" font-weight="normal" text-anchor="start"><tspan x="688" y="280">N</tspan></text><rect fill="white" height="60" stroke="black" stroke-width="1.0" width="189" x="1250" y="350"/><text fill="black" font-family="Times" font-size="25" font-weight="normal" text-anchor="middle"><tspan x="1344" y="390">DEPARTMENT</tspan></text><g><path d="M 1090.0 125.0 L 1314.5588235294117 350.0" fill="none" stroke="black" stroke-width="5.0"/></g><rect fill="none" height="31" stroke="none" stroke-width="5.0" width="17" x="1222" y="237"/><text fill="black" font-family="Times" font-size="20" font-weight="normal" text-anchor="start"><tspan x="1225" y="260">1</tspan></text><g><ellipse cx="1390" cy="90" fill="white" rx="80" ry="30" stroke="black" stroke-width="1.0"/><ellipse cx="1390" cy="90" fill="none" rx="76" ry="26" stroke="black" stroke-width="1.0"/></g><text fill="black" font-family="Times" font-size="25" font-weight="normal" text-anchor="middle"><tspan x="1389" y="100">Locations</tspan></text><g><path d="M 1385.301229287529 119.94820893662836 L 1349.2068965517242 350.0" fill="none" stroke="black" stroke-width="1.0"/></g><ellipse cx="1290" cy="180" fill="white" rx="80" ry="30" stroke="black" stroke-width="1.0" text-decoration="underline"/><text fill="black" font-decoration="underline" font-family="Times" font-size="25" font-weight="normal" text-anchor="middle" text-decoration="underline"><tspan x="1290" y="190">Name</tspan></text><g><path d="M 1298.1326485566747 209.84458185935637 L 1336.325 350.0" fill="none" stroke="black" stroke-width="1.0"/></g><ellipse cx="1480" cy="210" fill="white" font-weight="bold" rx="80" ry="30" stroke="black" stroke-width="1.0" text-decoration="underline"/><text fill="black" font-decoration="underline" font-family="Times" font-size="25" font-weight="bold" text-anchor="middle" text-decoration="underline"><tspan x="1479" y="220">Number</tspan></text><g><path d="M 1457.0897402915111 238.74349926526247 L 1368.4117647058824 350.0" fill="none" stroke="black" stroke-width="1.0"/></g><ellipse cx="1057" cy="360" fill="white" rx="157" ry="30" stroke="black" stroke-dasharray="3, 3" stroke-width="1.0"/><text fill="black" font-family="Times" font-size="25" font-weight="normal" text-anchor="middle"><tspan x="1057" y="370">Number_of_Employees</tspan></text><g><path d="M 1205.4118492089508 370.307445937906 L 1250.0 373.4146341463414" fill="none" stroke="black" stroke-width="1.0"/></g><path d="M 1340 560 L 1430 622 L 1340 684 L 1250 622 Z" fill="white" stroke="black" stroke-width="1.0"/><text fill="black" font-family="Times" font-size="25" font-weight="normal" text-anchor="middle"><tspan x="1339" y="632">CONTROLS</tspan></text><path d="M 890 690 L 980 743 L 890 796 L 800 743 Z" fill="white" stroke="black" stroke-width="1.0"/><text fill="black" font-family="Times" font-size="25" font-weight="normal" text-anchor="middle"><tspan x="890" y="753">MANAGES</tspan></text><ellipse cx="880" cy="600" fill="white" rx="80" ry="30" stroke="black" stroke-width="1.0"/><text fill="black" font-family="Times" font-size="25" font-weight="normal" text-anchor="middle"><tspan x="880" y="610">Start_date</tspan></text><g><path d="M 882.097181120324 629.9896900206331 L 886.4402985074628 692.0962686567165" fill="none" stroke="black" stroke-width="1.0"/></g><path d="M 891 830 L 972 883 L 891 936 L 810 883 Z" fill="white" stroke="black" stroke-width="1.0"/><text fill="black" font-family="Times" font-size="25" font-weight="normal" text-anchor="middle"><tspan x="891" y="893">WORKS_ON</tspan></text><rect fill="white" height="60" stroke="black" stroke-width="1.0" width="120" x="1280" y="850"/><text fill="black" font-family="Times" font-size="25" font-weight="normal" text-anchor="middle"><tspan x="1340" y="890">PROJECT</tspan></text><ellipse cx="1560" cy="680" fill="white" rx="80" ry="30" stroke="black" stroke-width="1.0" text-decoration="underline"/><text fill="black" font-decoration="underline" font-family="Times" font-size="25" font-weight="normal" text-anchor="middle" text-decoration="underline"><tspan x="1560" y="690">Name</tspan></text><ellipse cx="1580" cy="800" fill="white" font-weight="bold" rx="80" ry="30" stroke="black" stroke-width="1.0" text-decoration="underline"/><text fill="black" font-decoration="underline" font-family="Times" font-size="25" font-weight="bold" text-anchor="middle" text-decoration="underline"><tspan x="1579" y="810">Number</tspan></text><ellipse cx="1510" cy="940" fill="white" rx="80" ry="30" stroke="black" stroke-width="1.0"/><text fill="black" font-family="Times" font-size="25" font-weight="normal" text-anchor="middle"><tspan x="1510" y="950">Location</tspan></text><g><path d="M 1451.7440005845683 919.4390590298476 L 1400.0 901.1764705882354" fill="none" stroke="black" stroke-width="1.0"/></g><g><path d="M 1529.4935261637597 707.7331580329458 L 1373.0 850.0" fill="none" stroke="black" stroke-width="1.0"/></g><g><path d="M 1520.2072545053074 819.9309151648974 L 1400.0 860.0" fill="none" stroke="black" stroke-width="1.0"/></g><path d="M 180 650 L 300 717 L 180 784 L 60 717 Z" fill="white" stroke="black" stroke-width="1.0"/><text fill="black" font-family="Times" font-size="25" font-weight="normal" text-anchor="middle"><tspan x="180" y="727">SUPERVISION</tspan></text><g><path d="M 300.0 718.0 L 386.1111111111111 470.0" fill="none" stroke="black" stroke-width="1.0"/></g><rect fill="none" height="31" stroke="none" stroke-width="1.0" width="19" x="363" y="594"/><text fill="black" font-family="Times" font-size="20" font-weight="normal" text-anchor="start"><tspan x="366" y="617">N</tspan></text><g><path d="M 60.0 718.0 L 352.7777777777778 470.0" fill="none" stroke="black" stroke-width="1.0"/></g><rect fill="none" height="31" stroke="none" stroke-width="1.0" width="17" x="226" y="594"/><text fill="black" font-family="Times" font-size="20" font-weight="normal" text-anchor="start"><tspan x="229" y="617">1</tspan></text><g><path d="M 1340.0 560.0 L 1343.75 410.0" fill="none" stroke="black" stroke-width="1.0"/></g><rect fill="none" height="31" stroke="none" stroke-width="1.0" width="17" x="1361" y="485"/><text fill="black" font-family="Times" font-size="20" font-weight="normal" text-anchor="start"><tspan x="1364" y="508">1</tspan></text><g><path d="M 1340.0 685.0 L 1340.0 850.0" fill="none" stroke="black" stroke-width="5.0"/></g><rect fill="none" height="31" stroke="none" stroke-width="5.0" width="19" x="1360" y="767"/><text fill="black" font-family="Times" font-size="20" font-weight="normal" text-anchor="start"><tspan x="1363" y="790">N</tspan></text><g><path d="M 810.0 883.0 L 436.2030905077263 470.0" fill="none" stroke="black" stroke-width="5.0"/></g><rect fill="none" height="31" stroke="none" stroke-width="5.0" width="23" x="643" y="676"/><text fill="black" font-family="Times" font-size="20" font-weight="normal" text-anchor="start"><tspan x="646" y="699">M</tspan></text><g><path d="M 972.0 883.0 L 1280.0 880.4891304347825" fill="none" stroke="black" stroke-width="5.0"/></g><rect fill="none" height="31" stroke="none" stroke-width="5.0" width="19" x="1146" y="881"/><text fill="black" font-family="Times" font-size="20" font-weight="normal" text-anchor="start"><tspan x="1149" y="904">N</tspan></text><g><path d="M 520 770 L 690 846 L 520 922 L 350 846 Z" fill="white" stroke="black" stroke-width="1.0"/><path d="M 520.0 774.0 L 686.0 846.0 L 520.0 918.0 L 354.0 846.0 Z" fill="none" stroke="black" stroke-width="1.0"/></g><text fill="black" font-family="Times" font-size="25" font-weight="normal" text-anchor="middle"><tspan x="519" y="856">DEPENDENTS_OF</tspan></text><g><path d="M 520.0 770.0 L 414.1176470588234 470.0" fill="none" stroke="black" stroke-width="1.0"/></g><rect fill="none" height="31" stroke="none" stroke-width="1.0" width="17" x="487" y="620"/><text fill="black" font-family="Times" font-size="20" font-weight="normal" text-anchor="start"><tspan x="490" y="643">1</tspan></text><g fill="white" stroke="black" stroke-width="1.0"><rect height="56" stroke="black" stroke-width="1" width="158" x="452" y="1082"/><rect fill="none" height="60" stroke="black" stroke-width="1" width="162" x="450" y="1080"/></g><text fill="black" font-family="Times" font-size="25" font-weight="normal" text-anchor="middle"><tspan x="531" y="1120">DEPENDENT</tspan></text><line stroke="black" stroke-dasharray="3,3" x1="100" x2="260" y1="960" y2="960"/><ellipse cx="180" cy="960" fill="white" rx="80" ry="30" stroke="black" stroke-width="1.0"/><line stroke="black" stroke-dasharray="3,3" x1="143" x2="217" y1="978" y2="978"/><text fill="black" font-family="Times" font-size="25" font-weight="normal" text-anchor="middle"><tspan x="180" y="970">Name</tspan></text><ellipse cx="390" cy="960" fill="white" rx="80" ry="30" stroke="black" stroke-width="1.0"/><text fill="black" font-family="Times" font-size="25" font-weight="normal" text-anchor="middle"><tspan x="390" y="970">Sex</tspan></text><ellipse cx="812" cy="1130" fill="white" rx="82" ry="30" stroke="black" stroke-width="1.0"/><text fill="black" font-family="Times" font-size="25" font-weight="normal" text-anchor="middle"><tspan x="812" y="1140">Relationship</tspan></text><ellipse cx="780" cy="1030" fill="white" rx="80" ry="30" stroke="black" stroke-width="1.0"/><text fill="black" font-family="Times" font-size="25" font-weight="normal" text-anchor="middle"><tspan x="779" y="1040">Birth_Date</tspan></text><g><path d="M 232.7654580065264 982.5493410284303 L 460.79999999999995 1080.0" fill="none" stroke="black" stroke-width="1.0"/></g><g><path d="M 416.59600788428884 988.2936254088179 L 502.79999999999995 1080.0" fill="none" stroke="black" stroke-width="1.0"/></g><g><path d="M 719.2479916892594 1049.5187175295553 L 612.0 1083.9759036144578" fill="none" stroke="black" stroke-width="1.0"/></g><g><path d="M 731.5309846959765 1124.2473168522895 L 612.0 1115.7548845470692" fill="none" stroke="black" stroke-width="1.0"/></g><g><path d="M 520.0 922.0 L 529.2446808510638 1080.0" fill="none" stroke="black" stroke-width="5.0"/></g><rect fill="none" height="31" stroke="none" stroke-width="5.0" width="19" x="544" y="1001"/><text fill="black" font-family="Times" font-size="20" font-weight="normal" text-anchor="start"><tspan x="547" y="1024">N</tspan></text><g><path d="M 800.0 743.0 L 451.1182108626199 470.0" fill="none" stroke="black" stroke-width="1.0"/></g><rect fill="none" height="31" stroke="none" stroke-width="1.0" width="17" x="645" y="606"/><text fill="black" font-family="Times" font-size="20" font-weight="normal" text-anchor="start"><tspan x="648" y="629">1</tspan></text><g><path d="M 980.0 743.0 L 1314.3760330578511 410.0" fill="none" stroke="black" stroke-width="5.0"/></g><rect fill="none" height="31" stroke="none" stroke-width="5.0" width="17" x="1167" y="576"/><text fill="black" font-family="Times" font-size="20" font-weight="normal" text-anchor="start"><tspan x="1170" y="599">1</tspan></text></svg>